:SAMPLES-PER-SECOND 30
:FULLY-SPECIFIED
:DEGREES
196
root  -56.0732 39.1479 -2.0907 -12.0248 70.1003 -8.2778
RightUpLeg  -10.6904 -6.64284 -2.90903
RightLeg  24.1335 4.28627 1.84049
RightFoot  -8.10885 -0.133456 2.7663
RightToes  5.23868e-010 0 -3.6325e-017
Spine  10.2056 -2.95498 13.2902
Spine1  10.9614 -0.682692 -1.88888
HEad  -7.27797 9.97179 -6.3356
LeftShoulder1  -0.23175 4.12798 -31.0002
LeftArm  -12.153 14.5737 -35.9785
LeftForeArm  70.3059 -79.0207 -90.1211
LeftHand  0.0755251 3.2127 -5.20261
RightShoulder  -0.822677 -5.88091 27.994
RightArm  -12.0294 -14.5405 32.8457
RightForeArm  113.032 71.4551 142.924
RightHand  -0.00692719 -1.34821 -0.0309201
LeftUpLeg  -8.39255 -4.82047 6.85584
LeftLeg  57.1281 -1.03456 -1.24669
LeftFoot  1.10307 0.403216 -3.7516
LeftToes  -4.9204e-010 1.02043e-011 -1.81609e-011
197
root  -55.3377 39.3896 -1.50833 -10.6258 72.0724 -6.4964
RightUpLeg  -7.79168 -8.93424 -3.85531
RightLeg  22.7247 4.81106 1.93701
RightFoot  -9.06052 -0.11077 2.40735
RightToes  5.23868e-010 0 -3.6325e-017
Spine  9.87871 -2.82402 12.8135
Spine1  10.9839 -0.511115 -2.23061
HEad  -7.17365 8.89501 -6.60273
LeftShoulder1  -0.218385 4.0909 -31.0554
LeftArm  -11.6949 14.3361 -36.1424
LeftForeArm  67.6603 -79.0093 -87.5364
LeftHand  0.0635556 3.29814 -4.95167
RightShoulder  -0.916352 -6.1442 28.1307
RightArm  -11.8392 -14.4287 32.0807
RightForeArm  111.888 71.4768 142.724
RightHand  -0.0314858 -0.521075 -0.688187
LeftUpLeg  -11.4797 -3.00168 5.79287
LeftLeg  58.5 -1.33259 -1.81349
LeftFoot  -0.0350329 0.359263 -3.63197
LeftToes  -4.9204e-010 1.02043e-011 -1.81609e-011
198
root  -54.5773 39.5952 -0.917064 -9.73936 73.178 -5.96438
RightUpLeg  -5.49129 -9.67867 -3.96164
RightLeg  20.821 4.50621 1.73523
RightFoot  -9.73172 -0.105471 2.27727
RightToes  5.23868e-010 0 -3.6325e-017
Spine  8.60363 -2.41067 12.694
Spine1  11.3607 -0.209231 -2.59665
HEad  -6.84076 8.72125 -6.86489
LeftShoulder1  -0.293141 4.28635 -31.3345
LeftArm  -11.5796 14.443 -35.8984
LeftForeArm  68.5174 -79.0122 -88.4597
LeftHand  0.061329 3.29298 -4.64086
RightShoulder  -0.856273 -6.00091 27.6981
RightArm  -11.7375 -14.3969 32.489
RightForeArm  111.2 71.487 142.611
RightHand  -0.0647062 -0.988029 -1.49257
LeftUpLeg  -14.4776 -0.232975 5.29609
LeftLeg  57.3159 -2.06227 -2.94076
LeftFoot  -0.825838 0.387517 -4.15809
LeftToes  -4.9204e-010 1.02043e-011 -1.81609e-011
199
root  -53.8381 39.762 -0.367545 -8.9619 74.9282 -4.96219
RightUpLeg  -2.39944 -11.0681 -4.66512
RightLeg  18.722 4.1701 1.92527
RightFoot  -10.4292 -0.0861458 2.01988
RightToes  5.23868e-010 0 -3.6325e-017
Spine  8.44102 -2.25022 12.1017
Spine1  11.1651 -0.144764 -2.71673
HEad  -6.78855 8.05064 -6.55039
LeftShoulder1  -0.294441 4.28973 -31.3229
LeftArm  -11.5025 14.4331 -35.9392
LeftForeArm  69.5463 -78.9953 -89.9861
LeftHand  0.068341 2.77289 -3.80397
RightShoulder  -0.872177 -6.05172 27.6362
RightArm  -11.865 -14.5616 32.6412
RightForeArm  113.153 71.365 143.129
RightHand  -0.0125411 -2.37323 -0.0439159
LeftUpLeg  -16.4761 1.83977 4.29108
LeftLeg  53.8993 -2.76666 -3.60566
LeftFoot  -2.04728 0.394918 -4.71237
LeftToes  -4.9204e-010 1.02043e-011 -1.81609e-011
200
root  -53.0535 39.8721 0.114355 -7.75063 76.9503 -3.93999
RightUpLeg  0.230453 -11.3829 -5.20315
RightLeg  16.7192 2.67269 1.80372
RightFoot  -11.2413 -0.078015 2.10952
RightToes  5.23868e-010 0 -3.6325e-017
Spine  8.36455 -1.97584 11.4825
Spine1  10.0864 -0.0720317 -2.66918
HEad  -6.88091 7.26064 -6.69089
LeftShoulder1  -0.207624 4.05833 -31.2961
LeftArm  -11.0265 14.4379 -35.7623
LeftForeArm  71.0532 -78.9931 -91.4781
LeftHand  0.0633674 3.00535 -4.02182
RightShoulder  -0.938423 -6.23528 27.7789
RightArm  -11.9912 -15.3206 31.8594
RightForeArm  113.66 70.8731 144.213
RightHand  -0.0168268 -2.3041 -0.165613
LeftUpLeg  -18.3203 3.37767 3.03877
LeftLeg  48.6059 -3.2006 -3.47093
LeftFoot  -3.03074 0.411888 -5.41171
LeftToes  -4.9204e-010 1.02043e-011 -1.81609e-011
201
root  -52.281 39.9466 0.563569 -7.54804 78.3184 -3.95261
RightUpLeg  2.80823 -11.0661 -5.12974
RightLeg  14.463 1.08385 1.59349
RightFoot  -11.7917 -0.0710394 2.26117
RightToes  5.23868e-010 0 -3.6325e-017
Spine  7.90395 -1.63324 10.7993
Spine1  10.0814 -0.0423846 -2.31976
HEad  -7.2112 6.8862 -6.65919
LeftShoulder1  -0.272668 4.22737 -31.5629
LeftArm  -10.9993 13.7161 -35.6013
LeftForeArm  70.4657 -78.9735 -91.3644
LeftHand  0.0758941 2.72982 -4.09893
RightShoulder  -0.822162 -5.93451 27.2227
RightArm  -12.365 -15.5652 32.2064
RightForeArm  114.201 70.7338 144.558
RightHand  -0.012438 -1.70503 -0.0955818
LeftUpLeg  -19.3951 5.34615 2.17244
LeftLeg  41.6179 -3.61555 -3.04938
LeftFoot  -3.53299 0.394589 -5.46868
LeftToes  -4.9204e-010 1.02043e-011 -1.81609e-011
202
root  -51.4658 39.9988 0.96581 -6.46337 79.4607 -3.30422
RightUpLeg  5.10249 -10.8119 -5.06281
RightLeg  12.1916 -0.26455 1.38112
RightFoot  -12.2545 -0.0638062 2.41609
RightToes  5.23868e-010 0 -3.6325e-017
Spine  7.11814 -1.25121 10.4545
Spine1  10.1719 0.26787 -2.93792
HEad  -7.30072 6.26818 -6.47204
LeftShoulder1  -0.231338 4.12557 -31.0456
LeftArm  -11.2357 13.4165 -35.9953
LeftForeArm  71.8067 -78.9865 -92.2722
LeftHand  0.0639152 3.15925 -4.38574
RightShoulder  -0.835928 -5.95672 27.4708
RightArm  -12.6121 -15.3332 32.1025
RightForeArm  113.167 70.7776 144.339
RightHand  -0.0109894 -1.83711 -0.0306435
LeftUpLeg  -19.7089 7.09398 1.06064
LeftLeg  32.6376 -4.15383 -2.51364
LeftFoot  -3.35473 0.382348 -5.19091
LeftToes  -4.9204e-010 1.02043e-011 -1.81609e-011
203
root  -50.6466 40.0078 1.30285 -5.17701 80.7679 -2.35709
RightUpLeg  7.39253 -10.6175 -5.0552
RightLeg  10.0921 -1.75247 1.17826
RightFoot  -12.667 -0.0568822 2.5123
RightToes  5.23868e-010 0 -3.6325e-017
Spine  6.43555 -1.06055 9.84842
Spine1  10.478 0.375601 -3.41356
HEad  -7.31842 6.11236 -6.04742
LeftShoulder1  -0.198344 4.04578 -30.45
LeftArm  -11.5021 13.1182 -36.5771
LeftForeArm  72.5464 -78.9675 -93.2559
LeftHand  0.0468029 3.44528 -4.12284
RightShoulder  -0.881111 -6.06266 27.8485
RightArm  -12.5735 -14.5505 32.1314
RightForeArm  112.457 70.973 143.856
RightHand  -0.0315098 -2.04977 -0.69541
LeftUpLeg  -19.1178 7.96192 -0.180603
LeftLeg  22.1001 -3.91228 -1.43687
LeftFoot  -2.64307 0.422948 -5.33369
LeftToes  -4.9204e-010 1.02043e-011 -1.81609e-011
204
root  -49.8033 39.9874 1.58679 -4.47326 81.7504 -2.13372
RightUpLeg  9.33927 -10.3191 -4.90543
RightLeg  8.31877 -3.04456 1.14933
RightFoot  -13.0518 -0.0489495 2.63813
RightToes  5.23868e-010 0 -3.6325e-017
Spine  5.66137 -0.784422 8.76128
Spine1  11.0319 0.346665 -2.99096
HEad  -7.85722 5.61562 -6.07807
LeftShoulder1  -0.256762 4.199 -30.7979
LeftArm  -11.6288 12.5918 -36.3569
LeftForeArm  73.81 -78.9282 -94.9204
LeftHand  0.023318 4.02523 -4.15166
RightShoulder  -0.833676 -5.94632 27.53
RightArm  -12.9186 -14.0661 32.4842
RightForeArm  112.977 71.067 143.731
RightHand  -0.0156909 -2.40602 -0.103536
LeftUpLeg  -18.0947 6.39304 -0.54391
LeftLeg  11.2766 -1.38874 -0.558699
LeftFoot  -0.884033 0.540913 -5.86168
LeftToes  -4.9204e-010 1.02043e-011 -1.81609e-011
205
root  -48.8962 39.8964 1.81802 -5.2854 82.2257 -3.1629
RightUpLeg  11.3989 -9.95471 -4.68156
RightLeg  6.95195 -3.72124 1.11961
RightFoot  -13.6988 -0.0293359 3.10805
RightToes  5.23868e-010 0 -3.6325e-017
Spine  5.50655 -0.501052 8.42997
Spine1  11.0487 0.690841 -3.43795
HEad  -7.70349 5.67456 -5.81007
LeftShoulder1  -0.207909 4.07432 -30.3328
LeftArm  -11.9459 12.7656 -36.8413
LeftForeArm  76.2085 -78.8925 -97.136
LeftHand  0.0121538 4.17162 -3.65431
RightShoulder  -0.841514 -5.96742 27.555
RightArm  -12.8066 -13.7815 32.6058
RightForeArm  111.959 71.0916 143.547
RightHand  -0.0340057 -2.20653 -0.830432
LeftUpLeg  -16.9482 3.25169 0.19586
LeftLeg  2.77652 3.20434 -0.977715
LeftFoot  0.543488 0.603314 -5.81991
LeftToes  -4.9204e-010 1.02043e-011 -1.81609e-011
206
root  -47.8662 39.7093 1.9845 -6.56603 83.1809 -4.35543
RightUpLeg  13.7448 -10.0164 -4.89591
RightLeg  6.42273 -4.23479 1.28422
RightFoot  -14.9225 0.0170884 3.73529
RightToes  5.23868e-010 0 -3.6325e-017
Spine  4.83439 -0.52651 7.80925
Spine1  11.8669 0.635525 -3.52769
HEad  -7.78437 5.55029 -5.55382
LeftShoulder1  -0.223099 4.12497 -29.7718
LeftArm  -12.2574 12.5578 -37.214
LeftForeArm  77.7622 -78.8553 -98.6389
LeftHand  0.0144872 4.22373 -4.10715
RightShoulder  -0.861296 -6.00663 27.8158
RightArm  -12.6893 -13.2791 32.7034
RightForeArm  110.764 71.1582 143.255
RightHand  -0.0462267 -1.55416 -1.12135
LeftUpLeg  -16.4581 2.85173 -0.339753
LeftLeg  -0.667322 3.33783 -1.17782
LeftFoot  0.965348 0.573542 -5.34267
LeftToes  -4.9204e-010 1.02043e-011 -1.81609e-011
